<?xml version="1.0" encoding="UTF-8" standalone="no"?>
<!DOCTYPE svg PUBLIC "-//W3C//DTD SVG 1.1//EN" "http://www.w3.org/Graphics/SVG/1.1/DTD/svg11.dtd">
<svg xmlns="http://www.w3.org/2000/svg" version="1.1" viewBox="0.00 0.00 1024.00 1024.00">
<path stroke="#b8b7b4" stroke-width="2.00" fill="none" stroke-linecap="butt" vector-effect="non-scaling-stroke" d="
  M 461.60 404.40
  Q 462.51 401.78 463.51 399.00
  C 466.79 389.93 459.70 378.67 452.34 374.53
  C 434.80 364.67 416.87 378.25 418.69 397.34
  Q 419.31 403.77 422.05 408.87
  A 0.65 0.64 -16.4 0 1 421.53 409.82
  Q 411.86 410.56 401.00 412.50
  Q 396.86 413.24 394.15 415.41
  Q 356.25 445.76 324.60 470.29
  C 321.42 472.76 319.79 474.57 316.43 471.66
  Q 283.19 442.85 269.37 431.21
  A 2.19 2.16 14.1 0 1 268.66 430.04
  L 259.07 388.42
  A 0.63 0.61 -15.8 0 1 259.49 387.69
  Q 299.25 374.81 309.86 371.36
  Q 316.18 369.30 320.90 364.41
  Q 372.06 311.38 388.93 294.17
  Q 390.95 292.11 391.67 288.41
  Q 399.38 248.44 405.86 213.32
  C 406.11 211.94 406.17 210.02 404.97 208.88
  C 403.21 207.19 400.03 204.97 397.57 206.11
  Q 396.53 206.59 395.19 207.94
  Q 378.33 224.94 347.37 256.37
  Q 344.05 259.74 341.12 261.36
  Q 327.22 269.03 311.05 277.43
  A 0.29 0.28 -7.7 0 1 310.64 277.12
  Q 319.01 239.23 320.66 231.68
  C 321.49 227.88 325.24 224.37 328.16 221.40
  Q 361.19 187.80 395.49 151.74
  C 398.54 148.53 394.00 140.23 390.24 140.93
  Q 351.39 148.19 316.65 154.06
  Q 311.95 154.86 308.66 156.07
  Q 302.18 158.46 301.07 159.31
  Q 266.68 185.51 236.59 207.96
  C 227.21 214.95 220.63 220.46 212.61 226.65
  C 209.15 229.32 206.65 232.73 205.21 236.68
  Q 197.33 258.15 175.05 320.06
  Q 173.42 324.58 172.97 328.99
  Q 172.57 332.86 175.32 336.39
  Q 196.13 363.03 204.83 373.41
  Q 207.34 376.40 210.43 378.91
  A 0.49 0.48 -35.7 0 1 210.29 379.74
  C 207.49 380.79 202.99 381.50 200.77 383.17
  C 198.56 384.82 192.16 390.50 192.76 393.32
  Q 199.81 426.21 204.06 446.69
  Q 204.78 450.14 206.18 459.38
  A 3.75 3.61 -66.9 0 0 206.75 460.88
  C 208.98 464.28 210.24 468.08 213.45 470.88
  C 215.64 472.80 219.53 475.04 221.55 476.17
  Q 223.61 477.34 273.51 509.53
  Q 278.44 512.71 280.53 514.22
  A 3.75 3.69 8.3 0 1 281.87 515.99
  L 300.31 567.48
  A 0.36 0.36 0.0 0 1 299.86 567.95
  L 187.54 534.77
  A 1.20 1.18 45.4 0 0 186.88 534.76
  L 179.57 536.82
  A 2.10 2.08 10.5 0 0 178.48 537.56
  L 128.60 604.22
  A 2.75 2.62 -20.8 0 0 128.15 605.16
  Q 127.64 607.17 127.42 609.23
  Q 123.98 641.25 119.17 680.25
  C 118.74 683.68 118.67 686.81 122.74 687.76
  Q 127.82 688.94 129.85 684.62
  Q 131.04 682.10 156.68 623.18
  Q 157.38 621.57 159.08 620.32
  Q 178.22 606.26 195.60 592.81
  A 3.21 3.19 32.1 0 1 198.22 592.22
  Q 257.84 605.03 321.32 620.19
  A 3.48 3.45 79.4 0 1 323.39 621.62
  L 333.58 636.52
  A 0.30 0.30 0.0 0 1 333.36 636.99
  Q 297.13 639.81 223.13 645.88
  C 217.50 646.34 211.05 653.11 208.52 657.25
  Q 190.53 686.73 172.16 715.92
  Q 171.18 717.47 166.70 724.95
  Q 165.76 726.52 165.25 731.58
  A 4.42 4.39 39.8 0 0 165.41 733.29
  Q 167.11 738.91 167.68 741.31
  Q 170.37 752.66 181.05 800.96
  Q 182.14 805.86 182.56 806.48
  C 185.10 810.17 190.89 807.27 192.98 804.40
  A 2.20 2.20 0.0 0 0 193.40 803.17
  Q 194.45 775.20 196.28 743.79
  C 196.39 741.92 196.44 740.39 197.74 738.98
  Q 218.37 716.68 235.98 696.69
  Q 239.01 693.26 244.49 692.22
  Q 294.97 682.67 355.81 671.44
  A 2.21 2.21 0.0 0 1 357.77 672.05
  L 363.73 678.01
  A 0.68 0.67 -38.2 0 1 363.60 679.07
  L 268.16 735.56
  A 1.29 1.29 0.0 0 0 267.70 736.02
  Q 266.33 738.28 265.38 741.12
  Q 256.66 767.16 246.16 800.44
  Q 244.25 806.49 243.12 811.41
  A 3.97 3.95 41.6 0 0 243.26 813.71
  C 245.10 818.75 245.37 820.98 248.63 824.37
  C 268.76 845.28 287.93 864.69 306.74 885.15
  C 310.26 888.98 312.26 891.68 316.99 889.17
  Q 321.82 886.61 319.11 881.10
  Q 310.43 863.49 288.87 820.83
  Q 288.25 819.60 287.67 817.87
  A 1.75 1.72 -42.3 0 1 287.74 816.59
  Q 299.07 791.91 307.91 772.15
  C 309.27 769.12 310.71 768.16 313.36 766.35
  Q 352.71 739.55 392.54 711.60
  A 1.04 1.03 -43.4 0 1 393.77 711.63
  Q 422.57 733.66 422.75 733.80
  C 427.98 737.75 430.14 739.98 436.00 739.97
  Q 483.22 739.90 583.50 739.97
  Q 589.49 739.98 590.96 739.49
  C 593.81 738.56 598.11 734.83 600.72 732.92
  Q 612.13 724.56 629.60 711.22
  A 1.20 1.20 0.0 0 1 631.00 711.19
  Q 670.20 738.46 712.91 767.58
  Q 715.41 769.29 715.98 770.54
  Q 727.91 796.73 736.90 815.92
  A 3.55 3.54 -44.2 0 1 736.85 819.04
  Q 720.92 850.48 706.69 879.37
  C 705.54 881.70 704.42 883.82 705.26 886.26
  C 706.47 889.81 712.25 891.52 714.88 888.62
  Q 744.91 855.42 776.86 822.60
  C 778.37 821.05 781.54 813.54 780.76 811.00
  Q 773.78 788.03 757.94 740.03
  Q 756.58 735.91 752.77 733.72
  Q 728.54 719.74 659.53 678.93
  A 0.62 0.62 0.0 0 1 659.40 677.96
  L 665.89 671.47
  A 1.35 1.34 27.6 0 1 667.09 671.10
  C 708.34 678.69 742.70 684.58 783.53 693.18
  A 4.64 4.58 -19.8 0 1 785.47 694.08
  Q 787.89 695.98 790.05 698.46
  Q 803.76 714.20 825.17 737.47
  Q 827.68 740.21 827.75 741.53
  Q 830.46 791.92 830.95 802.76
  C 831.14 806.96 836.90 808.86 840.18 807.81
  A 3.07 3.07 0.0 0 0 842.21 805.59
  L 859.19 731.84
  A 0.82 0.44 -54.9 0 0 859.21 731.67
  C 859.09 726.41 856.40 723.05 853.37 718.12
  Q 821.33 665.96 816.75 658.26
  C 813.91 653.50 809.67 649.75 805.15 647.12
  Q 803.35 646.07 799.25 645.75
  Q 741.81 641.39 690.03 637.13
  A 0.40 0.40 0.0 0 1 689.73 636.51
  L 699.69 621.43
  A 3.24 3.20 -79.5 0 1 701.64 620.07
  Q 734.47 612.21 787.02 600.32
  Q 811.88 594.70 824.03 592.35
  Q 826.95 591.79 829.03 593.45
  Q 846.32 607.29 865.47 621.61
  A 6.98 6.88 7.0 0 1 867.67 624.38
  Q 878.07 648.40 893.69 684.79
  Q 895.24 688.40 899.32 687.95
  C 904.88 687.32 905.14 684.46 904.55 679.50
  Q 899.41 635.80 896.18 606.53
  A 4.66 4.66 0.0 0 0 895.29 604.27
  L 845.51 538.16
  A 3.76 3.72 -7.4 0 0 843.90 536.93
  Q 841.34 535.90 838.01 535.07
  Q 836.15 534.60 832.83 535.59
  Q 736.80 564.14 723.26 568.17
  A 0.45 0.45 0.0 0 1 722.72 567.56
  C 728.97 553.26 732.59 541.91 741.25 517.03
  Q 742.09 514.61 743.49 513.72
  Q 759.97 503.15 809.06 472.37
  Q 812.05 470.50 813.10 468.33
  Q 815.30 463.82 817.23 460.87
  A 3.59 3.58 64.7 0 0 817.80 459.27
  Q 818.08 456.68 818.42 454.94
  Q 825.20 420.87 830.64 394.28
  Q 831.02 392.40 830.66 391.70
  C 828.63 387.77 824.16 383.00 819.73 381.75
  Q 819.61 381.72 813.81 379.81
  A 0.55 0.55 0.0 0 1 813.60 378.90
  Q 820.48 372.14 826.97 363.98
  Q 834.54 354.48 848.32 336.74
  C 850.49 333.95 850.93 332.23 850.75 328.99
  Q 850.53 324.85 848.90 320.37
  Q 821.44 244.75 818.54 236.68
  C 817.41 233.55 815.58 229.86 813.53 228.23
  Q 798.41 216.21 795.21 213.79
  Q 749.59 179.26 727.02 162.01
  Q 721.98 158.16 718.48 156.83
  Q 713.75 155.03 708.77 154.20
  Q 666.28 147.09 634.33 141.00
  C 631.02 140.37 628.80 143.80 627.70 146.50
  Q 626.37 149.78 628.77 152.24
  Q 661.96 186.36 700.68 225.82
  Q 703.50 228.69 703.84 230.22
  Q 709.38 254.77 714.17 277.41
  A 0.29 0.29 0.0 0 1 713.75 277.73
  Q 700.46 270.83 689.04 264.74
  C 684.66 262.41 681.06 260.48 677.78 257.14
  Q 664.71 243.85 628.19 207.06
  C 625.51 204.36 622.65 206.20 619.94 208.23
  C 618.28 209.46 617.80 211.35 618.19 213.27
  Q 625.27 247.95 632.72 288.40
  Q 633.36 291.86 635.30 293.90
  Q 654.62 314.18 699.45 360.09
  C 704.73 365.49 707.50 368.64 712.68 370.36
  Q 736.94 378.38 764.81 387.74
  A 0.39 0.39 0.0 0 1 765.07 388.20
  L 755.41 430.15
  A 2.90 2.86 -12.7 0 1 754.37 431.77
  Q 750.74 434.55 747.68 437.18
  Q 727.48 454.62 707.43 472.17
  Q 705.25 474.09 703.06 472.41
  Q 674.68 450.77 631.49 416.52
  Q 626.40 412.49 619.29 411.42
  Q 612.61 410.42 602.24 409.45
  A 0.46 0.46 0.0 0 1 601.87 408.79
  Q 607.70 396.79 603.42 385.84
  C 597.41 370.48 579.67 366.74 567.56 377.69
  Q 562.05 382.66 559.66 390.30
  C 558.12 395.23 559.91 399.75 561.86 404.02
  A 0.49 0.49 0.0 0 1 561.42 404.71
  L 461.81 404.71
  A 0.23 0.23 0.0 0 1 461.60 404.40"
/>
<path fill="#fdfcfa" d="
  M 1024.00 0.00
  L 1024.00 1024.00
  L 0.00 1024.00
  L 0.00 0.00
  L 1024.00 0.00
  Z
  M 461.60 404.40
  Q 462.51 401.78 463.51 399.00
  C 466.79 389.93 459.70 378.67 452.34 374.53
  C 434.80 364.67 416.87 378.25 418.69 397.34
  Q 419.31 403.77 422.05 408.87
  A 0.65 0.64 -16.4 0 1 421.53 409.82
  Q 411.86 410.56 401.00 412.50
  Q 396.86 413.24 394.15 415.41
  Q 356.25 445.76 324.60 470.29
  C 321.42 472.76 319.79 474.57 316.43 471.66
  Q 283.19 442.85 269.37 431.21
  A 2.19 2.16 14.1 0 1 268.66 430.04
  L 259.07 388.42
  A 0.63 0.61 -15.8 0 1 259.49 387.69
  Q 299.25 374.81 309.86 371.36
  Q 316.18 369.30 320.90 364.41
  Q 372.06 311.38 388.93 294.17
  Q 390.95 292.11 391.67 288.41
  Q 399.38 248.44 405.86 213.32
  C 406.11 211.94 406.17 210.02 404.97 208.88
  C 403.21 207.19 400.03 204.97 397.57 206.11
  Q 396.53 206.59 395.19 207.94
  Q 378.33 224.94 347.37 256.37
  Q 344.05 259.74 341.12 261.36
  Q 327.22 269.03 311.05 277.43
  A 0.29 0.28 -7.7 0 1 310.64 277.12
  Q 319.01 239.23 320.66 231.68
  C 321.49 227.88 325.24 224.37 328.16 221.40
  Q 361.19 187.80 395.49 151.74
  C 398.54 148.53 394.00 140.23 390.24 140.93
  Q 351.39 148.19 316.65 154.06
  Q 311.95 154.86 308.66 156.07
  Q 302.18 158.46 301.07 159.31
  Q 266.68 185.51 236.59 207.96
  C 227.21 214.95 220.63 220.46 212.61 226.65
  C 209.15 229.32 206.65 232.73 205.21 236.68
  Q 197.33 258.15 175.05 320.06
  Q 173.42 324.58 172.97 328.99
  Q 172.57 332.86 175.32 336.39
  Q 196.13 363.03 204.83 373.41
  Q 207.34 376.40 210.43 378.91
  A 0.49 0.48 -35.7 0 1 210.29 379.74
  C 207.49 380.79 202.99 381.50 200.77 383.17
  C 198.56 384.82 192.16 390.50 192.76 393.32
  Q 199.81 426.21 204.06 446.69
  Q 204.78 450.14 206.18 459.38
  A 3.75 3.61 -66.9 0 0 206.75 460.88
  C 208.98 464.28 210.24 468.08 213.45 470.88
  C 215.64 472.80 219.53 475.04 221.55 476.17
  Q 223.61 477.34 273.51 509.53
  Q 278.44 512.71 280.53 514.22
  A 3.75 3.69 8.3 0 1 281.87 515.99
  L 300.31 567.48
  A 0.36 0.36 0.0 0 1 299.86 567.95
  L 187.54 534.77
  A 1.20 1.18 45.4 0 0 186.88 534.76
  L 179.57 536.82
  A 2.10 2.08 10.5 0 0 178.48 537.56
  L 128.60 604.22
  A 2.75 2.62 -20.8 0 0 128.15 605.16
  Q 127.64 607.17 127.42 609.23
  Q 123.98 641.25 119.17 680.25
  C 118.74 683.68 118.67 686.81 122.74 687.76
  Q 127.82 688.94 129.85 684.62
  Q 131.04 682.10 156.68 623.18
  Q 157.38 621.57 159.08 620.32
  Q 178.22 606.26 195.60 592.81
  A 3.21 3.19 32.1 0 1 198.22 592.22
  Q 257.84 605.03 321.32 620.19
  A 3.48 3.45 79.4 0 1 323.39 621.62
  L 333.58 636.52
  A 0.30 0.30 0.0 0 1 333.36 636.99
  Q 297.13 639.81 223.13 645.88
  C 217.50 646.34 211.05 653.11 208.52 657.25
  Q 190.53 686.73 172.16 715.92
  Q 171.18 717.47 166.70 724.95
  Q 165.76 726.52 165.25 731.58
  A 4.42 4.39 39.8 0 0 165.41 733.29
  Q 167.11 738.91 167.68 741.31
  Q 170.37 752.66 181.05 800.96
  Q 182.14 805.86 182.56 806.48
  C 185.10 810.17 190.89 807.27 192.98 804.40
  A 2.20 2.20 0.0 0 0 193.40 803.17
  Q 194.45 775.20 196.28 743.79
  C 196.39 741.92 196.44 740.39 197.74 738.98
  Q 218.37 716.68 235.98 696.69
  Q 239.01 693.26 244.49 692.22
  Q 294.97 682.67 355.81 671.44
  A 2.21 2.21 0.0 0 1 357.77 672.05
  L 363.73 678.01
  A 0.68 0.67 -38.2 0 1 363.60 679.07
  L 268.16 735.56
  A 1.29 1.29 0.0 0 0 267.70 736.02
  Q 266.33 738.28 265.38 741.12
  Q 256.66 767.16 246.16 800.44
  Q 244.25 806.49 243.12 811.41
  A 3.97 3.95 41.6 0 0 243.26 813.71
  C 245.10 818.75 245.37 820.98 248.63 824.37
  C 268.76 845.28 287.93 864.69 306.74 885.15
  C 310.26 888.98 312.26 891.68 316.99 889.17
  Q 321.82 886.61 319.11 881.10
  Q 310.43 863.49 288.87 820.83
  Q 288.25 819.60 287.67 817.87
  A 1.75 1.72 -42.3 0 1 287.74 816.59
  Q 299.07 791.91 307.91 772.15
  C 309.27 769.12 310.71 768.16 313.36 766.35
  Q 352.71 739.55 392.54 711.60
  A 1.04 1.03 -43.4 0 1 393.77 711.63
  Q 422.57 733.66 422.75 733.80
  C 427.98 737.75 430.14 739.98 436.00 739.97
  Q 483.22 739.90 583.50 739.97
  Q 589.49 739.98 590.96 739.49
  C 593.81 738.56 598.11 734.83 600.72 732.92
  Q 612.13 724.56 629.60 711.22
  A 1.20 1.20 0.0 0 1 631.00 711.19
  Q 670.20 738.46 712.91 767.58
  Q 715.41 769.29 715.98 770.54
  Q 727.91 796.73 736.90 815.92
  A 3.55 3.54 -44.2 0 1 736.85 819.04
  Q 720.92 850.48 706.69 879.37
  C 705.54 881.70 704.42 883.82 705.26 886.26
  C 706.47 889.81 712.25 891.52 714.88 888.62
  Q 744.91 855.42 776.86 822.60
  C 778.37 821.05 781.54 813.54 780.76 811.00
  Q 773.78 788.03 757.94 740.03
  Q 756.58 735.91 752.77 733.72
  Q 728.54 719.74 659.53 678.93
  A 0.62 0.62 0.0 0 1 659.40 677.96
  L 665.89 671.47
  A 1.35 1.34 27.6 0 1 667.09 671.10
  C 708.34 678.69 742.70 684.58 783.53 693.18
  A 4.64 4.58 -19.8 0 1 785.47 694.08
  Q 787.89 695.98 790.05 698.46
  Q 803.76 714.20 825.17 737.47
  Q 827.68 740.21 827.75 741.53
  Q 830.46 791.92 830.95 802.76
  C 831.14 806.96 836.90 808.86 840.18 807.81
  A 3.07 3.07 0.0 0 0 842.21 805.59
  L 859.19 731.84
  A 0.82 0.44 -54.9 0 0 859.21 731.67
  C 859.09 726.41 856.40 723.05 853.37 718.12
  Q 821.33 665.96 816.75 658.26
  C 813.91 653.50 809.67 649.75 805.15 647.12
  Q 803.35 646.07 799.25 645.75
  Q 741.81 641.39 690.03 637.13
  A 0.40 0.40 0.0 0 1 689.73 636.51
  L 699.69 621.43
  A 3.24 3.20 -79.5 0 1 701.64 620.07
  Q 734.47 612.21 787.02 600.32
  Q 811.88 594.70 824.03 592.35
  Q 826.95 591.79 829.03 593.45
  Q 846.32 607.29 865.47 621.61
  A 6.98 6.88 7.0 0 1 867.67 624.38
  Q 878.07 648.40 893.69 684.79
  Q 895.24 688.40 899.32 687.95
  C 904.88 687.32 905.14 684.46 904.55 679.50
  Q 899.41 635.80 896.18 606.53
  A 4.66 4.66 0.0 0 0 895.29 604.27
  L 845.51 538.16
  A 3.76 3.72 -7.4 0 0 843.90 536.93
  Q 841.34 535.90 838.01 535.07
  Q 836.15 534.60 832.83 535.59
  Q 736.80 564.14 723.26 568.17
  A 0.45 0.45 0.0 0 1 722.72 567.56
  C 728.97 553.26 732.59 541.91 741.25 517.03
  Q 742.09 514.61 743.49 513.72
  Q 759.97 503.15 809.06 472.37
  Q 812.05 470.50 813.10 468.33
  Q 815.30 463.82 817.23 460.87
  A 3.59 3.58 64.7 0 0 817.80 459.27
  Q 818.08 456.68 818.42 454.94
  Q 825.20 420.87 830.64 394.28
  Q 831.02 392.40 830.66 391.70
  C 828.63 387.77 824.16 383.00 819.73 381.75
  Q 819.61 381.72 813.81 379.81
  A 0.55 0.55 0.0 0 1 813.60 378.90
  Q 820.48 372.14 826.97 363.98
  Q 834.54 354.48 848.32 336.74
  C 850.49 333.95 850.93 332.23 850.75 328.99
  Q 850.53 324.85 848.90 320.37
  Q 821.44 244.75 818.54 236.68
  C 817.41 233.55 815.58 229.86 813.53 228.23
  Q 798.41 216.21 795.21 213.79
  Q 749.59 179.26 727.02 162.01
  Q 721.98 158.16 718.48 156.83
  Q 713.75 155.03 708.77 154.20
  Q 666.28 147.09 634.33 141.00
  C 631.02 140.37 628.80 143.80 627.70 146.50
  Q 626.37 149.78 628.77 152.24
  Q 661.96 186.36 700.68 225.82
  Q 703.50 228.69 703.84 230.22
  Q 709.38 254.77 714.17 277.41
  A 0.29 0.29 0.0 0 1 713.75 277.73
  Q 700.46 270.83 689.04 264.74
  C 684.66 262.41 681.06 260.48 677.78 257.14
  Q 664.71 243.85 628.19 207.06
  C 625.51 204.36 622.65 206.20 619.94 208.23
  C 618.28 209.46 617.80 211.35 618.19 213.27
  Q 625.27 247.95 632.72 288.40
  Q 633.36 291.86 635.30 293.90
  Q 654.62 314.18 699.45 360.09
  C 704.73 365.49 707.50 368.64 712.68 370.36
  Q 736.94 378.38 764.81 387.74
  A 0.39 0.39 0.0 0 1 765.07 388.20
  L 755.41 430.15
  A 2.90 2.86 -12.7 0 1 754.37 431.77
  Q 750.74 434.55 747.68 437.18
  Q 727.48 454.62 707.43 472.17
  Q 705.25 474.09 703.06 472.41
  Q 674.68 450.77 631.49 416.52
  Q 626.40 412.49 619.29 411.42
  Q 612.61 410.42 602.24 409.45
  A 0.46 0.46 0.0 0 1 601.87 408.79
  Q 607.70 396.79 603.42 385.84
  C 597.41 370.48 579.67 366.74 567.56 377.69
  Q 562.05 382.66 559.66 390.30
  C 558.12 395.23 559.91 399.75 561.86 404.02
  A 0.49 0.49 0.0 0 1 561.42 404.71
  L 461.81 404.71
  A 0.23 0.23 0.0 0 1 461.60 404.40
  Z"
/>
<path fill="#72716d" d="
  M 461.60 404.40
  A 0.23 0.23 0.0 0 0 461.81 404.71
  L 561.42 404.71
  A 0.49 0.49 0.0 0 0 561.86 404.02
  C 559.91 399.75 558.12 395.23 559.66 390.30
  Q 562.05 382.66 567.56 377.69
  C 579.67 366.74 597.41 370.48 603.42 385.84
  Q 607.70 396.79 601.87 408.79
  A 0.46 0.46 0.0 0 0 602.24 409.45
  Q 612.61 410.42 619.29 411.42
  Q 626.40 412.49 631.49 416.52
  Q 674.68 450.77 703.06 472.41
  Q 705.25 474.09 707.43 472.17
  Q 727.48 454.62 747.68 437.18
  Q 750.74 434.55 754.37 431.77
  A 2.90 2.86 -12.7 0 0 755.41 430.15
  L 765.07 388.20
  A 0.39 0.39 0.0 0 0 764.81 387.74
  Q 736.94 378.38 712.68 370.36
  C 707.50 368.64 704.73 365.49 699.45 360.09
  Q 654.62 314.18 635.30 293.90
  Q 633.36 291.86 632.72 288.40
  Q 625.27 247.95 618.19 213.27
  C 617.80 211.35 618.28 209.46 619.94 208.23
  C 622.65 206.20 625.51 204.36 628.19 207.06
  Q 664.71 243.85 677.78 257.14
  C 681.06 260.48 684.66 262.41 689.04 264.74
  Q 700.46 270.83 713.75 277.73
  A 0.29 0.29 0.0 0 0 714.17 277.41
  Q 709.38 254.77 703.84 230.22
  Q 703.50 228.69 700.68 225.82
  Q 661.96 186.36 628.77 152.24
  Q 626.37 149.78 627.70 146.50
  C 628.80 143.80 631.02 140.37 634.33 141.00
  Q 666.28 147.09 708.77 154.20
  Q 713.75 155.03 718.48 156.83
  Q 721.98 158.16 727.02 162.01
  Q 749.59 179.26 795.21 213.79
  Q 798.41 216.21 813.53 228.23
  C 815.58 229.86 817.41 233.55 818.54 236.68
  Q 821.44 244.75 848.90 320.37
  Q 850.53 324.85 850.75 328.99
  C 850.93 332.23 850.49 333.95 848.32 336.74
  Q 834.54 354.48 826.97 363.98
  Q 820.48 372.14 813.60 378.90
  A 0.55 0.55 0.0 0 0 813.81 379.81
  Q 819.61 381.72 819.73 381.75
  C 824.16 383.00 828.63 387.77 830.66 391.70
  Q 831.02 392.40 830.64 394.28
  Q 825.20 420.87 818.42 454.94
  Q 818.08 456.68 817.80 459.27
  A 3.59 3.58 64.7 0 1 817.23 460.87
  Q 815.30 463.82 813.10 468.33
  Q 812.05 470.50 809.06 472.37
  Q 759.97 503.15 743.49 513.72
  Q 742.09 514.61 741.25 517.03
  C 732.59 541.91 728.97 553.26 722.72 567.56
  A 0.45 0.45 0.0 0 0 723.26 568.17
  Q 736.80 564.14 832.83 535.59
  Q 836.15 534.60 838.01 535.07
  Q 841.34 535.90 843.90 536.93
  A 3.76 3.72 -7.4 0 1 845.51 538.16
  L 895.29 604.27
  A 4.66 4.66 0.0 0 1 896.18 606.53
  Q 899.41 635.80 904.55 679.50
  C 905.14 684.46 904.88 687.32 899.32 687.95
  Q 895.24 688.40 893.69 684.79
  Q 878.07 648.40 867.67 624.38
  A 6.98 6.88 7.0 0 0 865.47 621.61
  Q 846.32 607.29 829.03 593.45
  Q 826.95 591.79 824.03 592.35
  Q 811.88 594.70 787.02 600.32
  Q 734.47 612.21 701.64 620.07
  A 3.24 3.20 -79.5 0 0 699.69 621.43
  L 689.73 636.51
  A 0.40 0.40 0.0 0 0 690.03 637.13
  Q 741.81 641.39 799.25 645.75
  Q 803.35 646.07 805.15 647.12
  C 809.67 649.75 813.91 653.50 816.75 658.26
  Q 821.33 665.96 853.37 718.12
  C 856.40 723.05 859.09 726.41 859.21 731.67
  A 0.82 0.44 -54.9 0 1 859.19 731.84
  L 842.21 805.59
  A 3.07 3.07 0.0 0 1 840.18 807.81
  C 836.90 808.86 831.14 806.96 830.95 802.76
  Q 830.46 791.92 827.75 741.53
  Q 827.68 740.21 825.17 737.47
  Q 803.76 714.20 790.05 698.46
  Q 787.89 695.98 785.47 694.08
  A 4.64 4.58 -19.8 0 0 783.53 693.18
  C 742.70 684.58 708.34 678.69 667.09 671.10
  A 1.35 1.34 27.6 0 0 665.89 671.47
  L 659.40 677.96
  A 0.62 0.62 0.0 0 0 659.53 678.93
  Q 728.54 719.74 752.77 733.72
  Q 756.58 735.91 757.94 740.03
  Q 773.78 788.03 780.76 811.00
  C 781.54 813.54 778.37 821.05 776.86 822.60
  Q 744.91 855.42 714.88 888.62
  C 712.25 891.52 706.47 889.81 705.26 886.26
  C 704.42 883.82 705.54 881.70 706.69 879.37
  Q 720.92 850.48 736.85 819.04
  A 3.55 3.54 -44.2 0 0 736.90 815.92
  Q 727.91 796.73 715.98 770.54
  Q 715.41 769.29 712.91 767.58
  Q 670.20 738.46 631.00 711.19
  A 1.20 1.20 0.0 0 0 629.60 711.22
  Q 612.13 724.56 600.72 732.92
  C 598.11 734.83 593.81 738.56 590.96 739.49
  Q 589.49 739.98 583.50 739.97
  Q 483.22 739.90 436.00 739.97
  C 430.14 739.98 427.98 737.75 422.75 733.80
  Q 422.57 733.66 393.77 711.63
  A 1.04 1.03 -43.4 0 0 392.54 711.60
  Q 352.71 739.55 313.36 766.35
  C 310.71 768.16 309.27 769.12 307.91 772.15
  Q 299.07 791.91 287.74 816.59
  A 1.75 1.72 -42.3 0 0 287.67 817.87
  Q 288.25 819.60 288.87 820.83
  Q 310.43 863.49 319.11 881.10
  Q 321.82 886.61 316.99 889.17
  C 312.26 891.68 310.26 888.98 306.74 885.15
  C 287.93 864.69 268.76 845.28 248.63 824.37
  C 245.37 820.98 245.10 818.75 243.26 813.71
  A 3.97 3.95 41.6 0 1 243.12 811.41
  Q 244.25 806.49 246.16 800.44
  Q 256.66 767.16 265.38 741.12
  Q 266.33 738.28 267.70 736.02
  A 1.29 1.29 0.0 0 1 268.16 735.56
  L 363.60 679.07
  A 0.68 0.67 -38.2 0 0 363.73 678.01
  L 357.77 672.05
  A 2.21 2.21 0.0 0 0 355.81 671.44
  Q 294.97 682.67 244.49 692.22
  Q 239.01 693.26 235.98 696.69
  Q 218.37 716.68 197.74 738.98
  C 196.44 740.39 196.39 741.92 196.28 743.79
  Q 194.45 775.20 193.40 803.17
  A 2.20 2.20 0.0 0 1 192.98 804.40
  C 190.89 807.27 185.10 810.17 182.56 806.48
  Q 182.14 805.86 181.05 800.96
  Q 170.37 752.66 167.68 741.31
  Q 167.11 738.91 165.41 733.29
  A 4.42 4.39 39.8 0 1 165.25 731.58
  Q 165.76 726.52 166.70 724.95
  Q 171.18 717.47 172.16 715.92
  Q 190.53 686.73 208.52 657.25
  C 211.05 653.11 217.50 646.34 223.13 645.88
  Q 297.13 639.81 333.36 636.99
  A 0.30 0.30 0.0 0 0 333.58 636.52
  L 323.39 621.62
  A 3.48 3.45 79.4 0 0 321.32 620.19
  Q 257.84 605.03 198.22 592.22
  A 3.21 3.19 32.1 0 0 195.60 592.81
  Q 178.22 606.26 159.08 620.32
  Q 157.38 621.57 156.68 623.18
  Q 131.04 682.10 129.85 684.62
  Q 127.82 688.94 122.74 687.76
  C 118.67 686.81 118.74 683.68 119.17 680.25
  Q 123.98 641.25 127.42 609.23
  Q 127.64 607.17 128.15 605.16
  A 2.75 2.62 -20.8 0 1 128.60 604.22
  L 178.48 537.56
  A 2.10 2.08 10.5 0 1 179.57 536.82
  L 186.88 534.76
  A 1.20 1.18 45.4 0 1 187.54 534.77
  L 299.86 567.95
  A 0.36 0.36 0.0 0 0 300.31 567.48
  L 281.87 515.99
  A 3.75 3.69 8.3 0 0 280.53 514.22
  Q 278.44 512.71 273.51 509.53
  Q 223.61 477.34 221.55 476.17
  C 219.53 475.04 215.64 472.80 213.45 470.88
  C 210.24 468.08 208.98 464.28 206.75 460.88
  A 3.75 3.61 -66.9 0 1 206.18 459.38
  Q 204.78 450.14 204.06 446.69
  Q 199.81 426.21 192.76 393.32
  C 192.16 390.50 198.56 384.82 200.77 383.17
  C 202.99 381.50 207.49 380.79 210.29 379.74
  A 0.49 0.48 -35.7 0 0 210.43 378.91
  Q 207.34 376.40 204.83 373.41
  Q 196.13 363.03 175.32 336.39
  Q 172.57 332.86 172.97 328.99
  Q 173.42 324.58 175.05 320.06
  Q 197.33 258.15 205.21 236.68
  C 206.65 232.73 209.15 229.32 212.61 226.65
  C 220.63 220.46 227.21 214.95 236.59 207.96
  Q 266.68 185.51 301.07 159.31
  Q 302.18 158.46 308.66 156.07
  Q 311.95 154.86 316.65 154.06
  Q 351.39 148.19 390.24 140.93
  C 394.00 140.23 398.54 148.53 395.49 151.74
  Q 361.19 187.80 328.16 221.40
  C 325.24 224.37 321.49 227.88 320.66 231.68
  Q 319.01 239.23 310.64 277.12
  A 0.29 0.28 -7.7 0 0 311.05 277.43
  Q 327.22 269.03 341.12 261.36
  Q 344.05 259.74 347.37 256.37
  Q 378.33 224.94 395.19 207.94
  Q 396.53 206.59 397.57 206.11
  C 400.03 204.97 403.21 207.19 404.97 208.88
  C 406.17 210.02 406.11 211.94 405.86 213.32
  Q 399.38 248.44 391.67 288.41
  Q 390.95 292.11 388.93 294.17
  Q 372.06 311.38 320.90 364.41
  Q 316.18 369.30 309.86 371.36
  Q 299.25 374.81 259.49 387.69
  A 0.63 0.61 -15.8 0 0 259.07 388.42
  L 268.66 430.04
  A 2.19 2.16 14.1 0 0 269.37 431.21
  Q 283.19 442.85 316.43 471.66
  C 319.79 474.57 321.42 472.76 324.60 470.29
  Q 356.25 445.76 394.15 415.41
  Q 396.86 413.24 401.00 412.50
  Q 411.86 410.56 421.53 409.82
  A 0.65 0.64 -16.4 0 0 422.05 408.87
  Q 419.31 403.77 418.69 397.34
  C 416.87 378.25 434.80 364.67 452.34 374.53
  C 459.70 378.67 466.79 389.93 463.51 399.00
  Q 462.51 401.78 461.60 404.40
  Z"
/>
</svg>
