<?xml version="1.0" encoding="utf-8"?>
<svg width="618" height="606" viewBox="0 0 618 606" fill="none" xmlns="http://www.w3.org/2000/svg">
  <rect x="330.624" y="113.916" width="286.5" height="255.834" rx="9.75" stroke="#104C35" stroke-opacity="0.3" stroke-width="0.5" style=""/>
  <path d="M 570.138 223.206 L 570.138 256.092 C 570.138 257.682 568.848 258.972 567.258 258.972 L 488.223 258.972 C 486.632 258.972 485.343 260.261 485.343 261.852 L 485.343 279.72 L 485.343 339.251 C 485.343 340.841 486.632 342.131 488.223 342.131 L 526.459 342.131" stroke="#bbf7d0" stroke-width="0.71621"/>
  <path d="M 447.281 344.151 L 447.281 282.611" stroke="#bbf7d0" stroke-width="0.71621"/>
  <path d="M 378.624 293.535 L 378.624 299.896 C 378.624 301.486 379.914 302.776 381.504 302.776 L 428.584 302.776 C 430.175 302.776 431.464 304.065 431.464 305.656 L 431.464 341.943" stroke="#bbf7d0" stroke-width="0.71621"/>
  <path d="M 480.124 268.754 L 480.124 231.934 C 480.124 230.344 481.414 229.054 483.004 229.054 L 525.316 229.054 C 526.907 229.054 528.196 227.765 528.196 226.174 L 528.196 151.651" stroke="#bbf7d0" stroke-width="0.71621"/>
  <path d="M 377.077 214.316 L 377.077 238.245 C 377.077 239.835 378.367 241.125 379.957 241.125 L 409.808 241.125 C 411.399 241.125 412.688 242.414 412.688 244.005 L 412.688 267.057 L 412.688 308.423 C 412.688 310.013 411.399 311.303 409.808 311.303 L 382.193 311.303 C 380.602 311.303 379.313 312.592 379.313 314.183 L 379.313 327.899" stroke="#bbf7d0" stroke-width="0.71621"/>
  <path d="M 369.312 326.32 L 369.312 151.323" stroke="#bbf7d0" stroke-width="0.71621"/>
  <path d="M 579.192 161.323 L 579.192 316.88 L 579.192 332.106 L 536.015 332.106" stroke="#bbf7d0" stroke-width="0.71621"/>
  <path d="M 423.671 271.824 L 423.671 152.043" stroke="#bbf7d0" stroke-width="0.71621"/>
  <path d="M 474.648 278.417 L 474.648 151.323" stroke="#bbf7d0" stroke-width="0.71621"/>
  <path d="M 423.671 189.217 L 426.552 186.337 L 429.431 189.217" stroke="#f0fdf4" stroke-width="1.2672" stroke-linecap="round" stroke-linejoin="round"/>
  <path d="M 579.195 189.217 L 582.075 186.337 L 584.955 189.217" stroke="#f0fdf4" stroke-width="1.2672" stroke-linecap="round" stroke-linejoin="round"/>
  <path d="M 481.273 189.217 L 484.153 186.337 L 487.033 189.217" stroke="#f0fdf4" stroke-width="1.2672" stroke-linecap="round" stroke-linejoin="round"/>
  <g filter="url(#filter0_d_2071_1091)" transform="matrix(1, 0, 0, 1, 0.719395, 80.57348)">
    <rect x="347.929" y="39.4108" width="252.001" height="25.2" rx="2.88001" shape-rendering="crispEdges" style="fill-rule: nonzero; paint-order: fill; fill: rgb(16, 76, 53);"/>
    <rect x="347.929" y="39.4108" width="252.001" height="25.2" rx="2.88001" shape-rendering="crispEdges" style="fill-rule: nonzero; paint-order: fill; fill: rgb(240, 253, 244);"/>
    <rect opacity="0.1" x="469.609" y="47.6908" width="8.64004" height="8.64" rx="4.32" style="fill-rule: nonzero; paint-order: fill;"/>
  </g>
  <g filter="url(#filter1_d_2071_1091)" transform="matrix(1, 0, 0, 1, 0.719395, 80.57348)">
    <rect x="347.929" y="104.446" width="43.2002" height="25.92" rx="2.88001" style="fill: rgb(16, 76, 53);"/>
  </g>
  <g filter="url(#filter2_d_2071_1091)" transform="matrix(1, 0, 0, 1, 0.719395, 80.57348)">
    <rect x="400.249" y="104.446" width="43.2002" height="25.92" rx="2.88001" style="fill: rgb(16, 76, 53);"/>
  </g>
  <g filter="url(#filter3_d_2071_1091)" transform="matrix(1, 0, 0, 1, 0.719395, 80.57348)">
    <rect x="452.577" y="104.446" width="43.2002" height="25.92" rx="2.88001" style="fill: rgb(16, 76, 53);"/>
  </g>
  <g filter="url(#filter4_d_2071_1091)" transform="matrix(1, 0, 0, 1, 0.719395, 80.57348)">
    <rect x="504.897" y="104.446" width="43.2002" height="25.92" rx="2.88001" style="fill: rgb(16, 76, 53);"/>
  </g>
  <g filter="url(#filter5_d_2071_1091)" transform="matrix(1, 0, 0, 1, 0.719395, 80.57348)">
    <rect x="557.226" y="104.446" width="43.2002" height="25.92" rx="2.88001" style="fill: rgb(16, 76, 53);"/>
  </g>
  <g filter="url(#filter6_d_2071_1091)" transform="matrix(1, 0, 0, 1, 0.719395, 80.57348)">
    <rect x="347.929" y="186.851" width="43.2002" height="25.92" rx="2.88001" fill="url(#paint0_linear_2071_1091)" shape-rendering="crispEdges"/>
    <rect x="368.089" y="198.371" width="2.88001" height="2.88" rx="1.44" fill="#f0fdf4"/>
  </g>
  <g filter="url(#filter7_d_2071_1091)" transform="matrix(1, 0, 0, 1, 0.719395, 80.57348)">
    <rect x="347.929" y="248.691" width="43.2002" height="25.92" rx="2.88001" fill="url(#paint1_linear_2071_1091)" shape-rendering="crispEdges"/>
    <rect x="368.089" y="260.211" width="2.88001" height="2.88" rx="1.44" fill="#f0fdf4"/>
  </g>
  <g filter="url(#filter8_d_2071_1091)" transform="matrix(1, 0, 0, 1, 0.719395, 80.57348)">
    <rect x="424.968" y="248.691" width="43.2002" height="25.92" rx="2.88001" fill="url(#paint2_linear_2071_1091)" shape-rendering="crispEdges"/>
    <rect x="445.128" y="260.211" width="2.88001" height="2.88" rx="1.44" fill="#f0fdf4"/>
  </g>
  <g filter="url(#filter9_d_2071_1091)" transform="matrix(1, 0, 0, 1, 0.719395, 80.57348)">
    <rect x="504.405" y="248.691" width="43.2002" height="25.92" rx="2.88001" fill="url(#paint3_linear_2071_1091)" shape-rendering="crispEdges"/>
    <rect x="524.565" y="260.211" width="2.88001" height="2.88" rx="1.44" fill="#f0fdf4"/>
  </g>
  <g filter="url(#filter10_d_2071_1091)" transform="matrix(1, 0, 0, 1, 0.719395, 80.57348)">
    <rect x="557.226" y="186.851" width="43.2002" height="25.92" rx="2.88001" fill="url(#paint4_linear_2071_1091)" shape-rendering="crispEdges"/>
    <rect x="577.386" y="198.371" width="2.88001" height="2.88" rx="1.44" fill="#f0fdf4"/>
  </g>
  <g filter="url(#filter11_d_2071_1091)" transform="matrix(1, 0, 0, 1, 0.719395, 80.57348)">
    <rect x="403.366" y="186.851" width="86.4004" height="25.92" rx="2.88001" fill="url(#paint5_linear_2071_1091)" shape-rendering="crispEdges"/>
    <rect x="445.126" y="198.371" width="2.88001" height="2.88" rx="1.44" fill="#f0fdf4"/>
  </g>
  <path d="M 579.189 213.617 L 580.436 215.777 L 577.942 215.777 L 579.189 213.617 Z" fill="#0d3d2a"/>
  <path d="M 579.189 296.181 L 580.436 298.341 L 577.942 298.341 L 579.189 296.181 Z" fill="#0d3d2a"/>
  <path d="M 570.135 213.618 L 571.382 215.778 L 568.888 215.778 L 570.135 213.618 Z" fill="#0d3d2a"/>
  <path d="M 528.189 213.617 L 529.436 215.777 L 526.942 215.777 L 528.189 213.617 Z" fill="#0d3d2a"/>
  <path d="M 474.642 213.617 L 475.889 215.777 L 473.395 215.777 L 474.642 213.617 Z" fill="#0d3d2a"/>
  <path d="M 447.283 296.181 L 448.53 298.341 L 446.036 298.341 L 447.283 296.181 Z" fill="#0d3d2a"/>
  <path d="M 369.314 296.181 L 370.561 298.341 L 368.067 298.341 L 369.314 296.181 Z" fill="#0d3d2a"/>
  <path d="M 412.689 296.181 L 413.936 298.341 L 411.442 298.341 L 412.689 296.181 Z" fill="#0d3d2a"/>
  <path d="M 378.627 296.181 L 379.874 298.341 L 377.38 298.341 L 378.627 296.181 Z" fill="#0d3d2a"/>
  <path d="M 369.314 327.042 L 370.561 324.882 L 368.067 324.882 L 369.314 327.042 Z" fill="#0d3d2a"/>
  <path d="M 379.471 327.042 L 380.718 324.882 L 378.223 324.882 L 379.471 327.042 Z" fill="#0d3d2a"/>
  <path d="M 431.471 327.042 L 432.718 324.882 L 430.223 324.882 L 431.471 327.042 Z" fill="#0d3d2a"/>
  <path d="M 502.413 342.13 L 500.253 340.883 L 500.253 343.378 L 502.413 342.13 Z" fill="#0d3d2a"/>
  <path d="M 423.674 213.617 L 424.921 215.777 L 422.427 215.777 L 423.674 213.617 Z" fill="#0d3d2a"/>
  <path d="M 377.08 213.618 L 378.327 215.778 L 375.833 215.778 L 377.08 213.618 Z" fill="#0d3d2a"/>
  <path d="M 369.314 213.617 L 370.561 215.777 L 368.067 215.777 L 369.314 213.617 Z" fill="#0d3d2a"/>
  <path d="M 579.197 150.338 L 580.444 152.498 L 577.95 152.498 L 579.197 150.338 Z" fill="#0d3d2a"/>
  <path d="M 528.189 150.338 L 529.436 152.498 L 526.942 152.498 L 528.189 150.338 Z" fill="#0d3d2a"/>
  <path d="M 474.642 150.338 L 475.889 152.498 L 473.395 152.498 L 474.642 150.338 Z" fill="#0d3d2a"/>
  <path d="M 423.674 150.338 L 424.921 152.498 L 422.427 152.498 L 423.674 150.338 Z" fill="#0d3d2a"/>
  <path d="M 369.314 150.338 L 370.561 152.498 L 368.067 152.498 L 369.314 150.338 Z" fill="#0d3d2a"/>
  <rect x="0.929" y="115.735" width="299.5" height="254.054" rx="9.75" stroke="#104C35" stroke-opacity="0.3" stroke-width="0.5" style=""/>
  <path d="M 138.184 185.622 L 118.808 226.162" stroke="#bbf7d0" stroke-width="0.572968"/>
  <path d="M 153.698 186.389 L 170.816 225.29" stroke="#bbf7d0" stroke-width="0.572968"/>
  <path d="M 249.477 259.506 L 160.894 284.707" stroke="#bbf7d0" stroke-width="0.572968"/>
  <path d="M 119.996 242.226 L 51.074 242.226" stroke="#bbf7d0" stroke-width="0.572968"/>
  <path d="M 233.332 299.826 L 51.074 299.826" stroke="#bbf7d0" stroke-width="0.572968"/>
  <path d="M 118.816 258.219 L 132.617 283.147" stroke="#bbf7d0" stroke-width="0.572968"/>
  <path d="M 173.011 257.748 L 148.982 284.662" stroke="#bbf7d0" stroke-width="0.572968"/>
  <rect x="22.816" y="216.306" width="179.137" height="109.44" rx="2.304" fill="#104C35" fill-opacity="0.1"/>
  <path d="M 53.183 225.524 L 126.987 186.493" stroke="#bbf7d0" stroke-width="0.572968"/>
  <g filter="url(#filter12_d_2071_1091)" transform="matrix(1, 0, 0, 1, -3.59703, -22.30163)">
    <rect x="34.7803" y="247.248" width="46.0802" height="34.56" rx="4" fill="url(#paint7_linear_2071_1091)" shape-rendering="crispEdges"/>
    <rect x="43.9961" y="263.376" width="2.30401" height="2.304" rx="1.152" fill="#f0fdf4"/>
  </g>
  <g filter="url(#filter13_d_2071_1091)" transform="matrix(1, 0, 0, 1, -3.59703, -22.30163)">
    <rect x="99.2881" y="247.248" width="46.0802" height="34.56" rx="4" fill="url(#paint8_linear_2071_1091)" shape-rendering="crispEdges"/>
    <rect x="108.504" y="263.376" width="2.30401" height="2.304" rx="1.152" fill="#f0fdf4"/>
  </g>
  <g filter="url(#filter14_d_2071_1091)" transform="matrix(1, 0, 0, 1, -3.59703, -22.30163)">
    <rect x="151.124" y="247.248" width="46.0802" height="34.56" rx="4" fill="url(#paint9_linear_2071_1091)" shape-rendering="crispEdges"/>
    <rect x="160.34" y="263.376" width="2.30401" height="2.304" rx="1.152" fill="#f0fdf4"/>
  </g>
  <g filter="url(#filter15_d_2071_1091)" transform="matrix(1, 0, 0, 1, -3.59703, -22.30163)">
    <rect x="34.7803" y="304.848" width="46.0802" height="34.56" rx="4" fill="url(#paint10_linear_2071_1091)" shape-rendering="crispEdges"/>
    <rect x="43.9961" y="320.976" width="2.30401" height="2.304" rx="1.152" fill="#f0fdf4"/>
  </g>
  <g filter="url(#filter16_d_2071_1091)" transform="matrix(1, 0, 0, 1, -3.59703, -22.30163)">
    <rect x="122.327" y="304.848" width="46.0802" height="34.56" rx="4" fill="url(#paint11_linear_2071_1091)" shape-rendering="crispEdges"/>
    <rect x="131.543" y="320.976" width="2.30401" height="2.304" rx="1.152" fill="#f0fdf4"/>
  </g>
  <path d="M 159.492 185.522 L 249.652 225.176" stroke="#bbf7d0" stroke-width="0.572968"/>
  <path d="M 169.71 222.635 L 168.023 221.57 L 169.79 220.642 L 169.71 222.635 Z" fill="#0d3d2a"/>
  <path d="M 152.496 280.693 L 153.035 278.772 L 154.429 280.2 L 152.496 280.693 Z" fill="#0d3d2a"/>
  <path d="M 131.473 280.978 L 129.638 280.196 L 131.233 278.997 L 131.473 280.978 Z" fill="#0d3d2a"/>
  <path d="M 120.188 223.325 L 120.023 221.337 L 121.828 222.188 L 120.188 223.325 Z" fill="#0d3d2a"/>
  <path d="M 56.989 223.47 L 58.09 221.806 L 58.981 223.592 L 56.989 223.47 Z" fill="#0d3d2a"/>
  <path d="M 79.097 299.826 L 80.825 300.824 L 80.825 298.828 L 79.097 299.826 Z" fill="#0d3d2a"/>
  <path d="M 222.972 299.826 L 221.244 300.824 L 221.244 298.828 L 222.972 299.826 Z" fill="#0d3d2a"/>
  <path d="M 164.002 187.445 L 165.008 189.169 L 165.998 187.436 L 164.002 187.445 Z" fill="#0d3d2a"/>
  <path d="M 242.971 261.421 L 241.063 260.838 L 241.512 262.782 L 242.971 261.421 Z" fill="#0d3d2a"/>
  <g filter="url(#filter17_d_2071_1091)" transform="matrix(1, 0, 0, 1, -3.59703, -22.30163)">
    <rect x="228.866" y="247.248" width="46.0802" height="34.56" rx="4" fill="#104C35" shape-rendering="crispEdges"/>
    <rect x="228.866" y="247.248" width="46.0802" height="34.56" rx="4" fill="white" shape-rendering="crispEdges"/>
    <rect opacity="0.1" x="233.475" y="261.072" width="6.91203" height="6.912" rx="3.456" fill="#0d3d2a"/>
  </g>
  <g filter="url(#filter18_d_2071_1091)" transform="matrix(1, 0, 0, 1, -3.59703, -22.30163)">
    <rect x="228.866" y="304.848" width="46.0802" height="34.56" rx="4" fill="#104C35" shape-rendering="crispEdges"/>
    <rect x="228.866" y="304.848" width="46.0802" height="34.56" rx="4" fill="white" shape-rendering="crispEdges"/>
    <rect opacity="0.1" x="233.475" y="318.672" width="6.91203" height="6.912" rx="3.456" fill="#0d3d2a"/>
  </g>
  <g filter="url(#filter19_d_2071_1091)" transform="matrix(1, 0, 0, 1, -3.59703, -22.30163)">
    <rect x="124.905" y="174.096" width="46.0802" height="34.56" rx="4" fill="#104C35" shape-rendering="crispEdges"/>
    <rect x="124.905" y="174.096" width="46.0802" height="34.56" rx="4" fill="white" shape-rendering="crispEdges"/>
    <rect opacity="0.1" x="129.514" y="187.92" width="6.91203" height="6.912" rx="3.456" fill="#0d3d2a"/>
  </g>
  <rect x="0.928711" y="392.175" width="616.5" height="213.5" rx="9.75" stroke="#104C35" stroke-opacity="0.3" stroke-width="0.5"/>
  <path d="M151.601 437.467V494.273C151.601 495.864 152.89 497.153 154.481 497.153H179.447" stroke="#bbf7d0" stroke-width="1.26"/>
  <path d="M269.546 437.467V494.273C269.546 495.864 268.256 497.153 266.666 497.153H241.7" stroke="#bbf7d0" stroke-width="1.26"/>
  <path d="M188.733 517.353V561.975C188.733 563.565 190.023 564.855 191.613 564.855H413.656M413.656 533.733H234.202C232.611 533.733 231.322 532.443 231.322 530.853V517.353" stroke="#bbf7d0" stroke-width="1.26"/>
  <mask id="path-99-inside-1_2071_1091" fill="white">
    <path d="M53.4365 433.013H414.478V435.893H53.4365V433.013Z"/>
  </mask>
  <path d="M53.4365 433.013H414.478V435.893H53.4365V433.013Z" fill="#f0fdf4"/>
  <path d="M53.4365 433.013V430.133H50.5565V433.013H53.4365ZM414.478 433.013H417.358V430.133H414.478V433.013ZM414.478 435.893V438.773H417.358V435.893H414.478ZM53.4365 435.893H50.5565V438.773H53.4365V435.893ZM53.4365 435.893H414.478V430.133H53.4365V435.893ZM411.598 433.013V435.893H417.358V433.013H411.598ZM414.478 433.013H53.4365V438.773H414.478V433.013ZM56.3165 435.893V433.013H50.5565V435.893H56.3165Z" fill="#bbf7d0" mask="url(#path-99-inside-1_2071_1091)"/>
  <g filter="url(#filter20_d_2071_1091)">
    <path d="M171.812 478.709C171.812 475.528 174.39 472.949 177.572 472.949H241.4C244.581 472.949 247.16 475.528 247.16 478.709V512.685C247.16 515.866 244.581 518.445 241.4 518.445H177.572C174.39 518.445 171.812 515.866 171.812 512.685V478.709Z" fill="url(#paint13_linear_2071_1091)"/>
  </g>
  <g filter="url(#filter21_d_2071_1091)">
    <rect x="221.187" y="506.373" width="20.1601" height="20.16" rx="10.08" style="fill: rgb(16, 76, 53);"/>
  </g>
  <g filter="url(#filter22_d_2071_1091)">
    <rect x="178.554" y="506.373" width="20.1601" height="20.16" rx="10.08" style="fill: rgb(16, 76, 53);"/>
  </g>
  <g filter="url(#filter23_d_2071_1091)">
    <rect x="73.5928" y="424.373" width="40.3202" height="20.16" rx="2.88" fill="#104C35" shape-rendering="crispEdges"/>
    <rect x="73.5928" y="424.373" width="40.3202" height="20.16" rx="2.88" fill="white" shape-rendering="crispEdges"/>
    <rect opacity="0.1" x="79.3525" y="430.133" width="8.64003" height="8.64" rx="4.32" fill="#0d3d2a"/>
  </g>
  <g filter="url(#filter24_d_2071_1091)">
    <rect x="263.515" y="424.373" width="40.3202" height="20.16" rx="2.88" fill="#104C35" shape-rendering="crispEdges"/>
    <rect x="263.515" y="424.373" width="40.3202" height="20.16" rx="2.88" fill="white" shape-rendering="crispEdges"/>
    <rect opacity="0.1" x="269.274" y="430.133" width="8.64003" height="8.64" rx="4.32" fill="#0d3d2a"/>
  </g>
  <g filter="url(#filter25_d_2071_1091)">
    <rect x="282.155" y="523.653" width="40.3202" height="20.16" rx="2.88" fill="#104C35" shape-rendering="crispEdges"/>
    <rect x="282.155" y="523.653" width="40.3202" height="20.16" rx="2.88" fill="white" shape-rendering="crispEdges"/>
    <rect opacity="0.1" x="287.915" y="529.413" width="8.64003" height="8.64" rx="4.32" fill="#0d3d2a"/>
  </g>
  <g filter="url(#filter26_d_2071_1091)">
    <rect x="220.319" y="555.333" width="40.3202" height="20.16" rx="2.88" fill="#104C35" shape-rendering="crispEdges"/>
    <rect x="220.319" y="555.333" width="40.3202" height="20.16" rx="2.88" fill="white" shape-rendering="crispEdges"/>
    <rect opacity="0.1" x="226.079" y="561.093" width="8.64003" height="8.64" rx="4.32" fill="#0d3d2a"/>
  </g>
  <g filter="url(#filter27_d_2071_1091)">
    <rect x="318.241" y="424.373" width="40.3202" height="20.16" rx="2.88" fill="#104C35" shape-rendering="crispEdges"/>
    <rect x="318.241" y="424.373" width="40.3202" height="20.16" rx="2.88" fill="white" shape-rendering="crispEdges"/>
    <rect opacity="0.1" x="324.001" y="430.133" width="8.64003" height="8.64" rx="4.32" fill="#0d3d2a"/>
  </g>
  <rect y="2.03647" width="14.4" height="14.4" transform="matrix(0.707108 0.707105 -0.707108 0.707105 153.072 422.954)" fill="#dcfce7" stroke="#bbf7d0" stroke-width="2.88"/>
  <g filter="url(#filter28_d_2071_1091)">
    <rect x="44.7959" y="424.373" width="20.1601" height="20.16" rx="10.08" style="fill: rgb(16, 76, 53);"/>
  </g>
  <g filter="url(#filter29_d_2071_1091)">
    <rect x="402.952" y="424.373" width="20.1601" height="20.16" rx="2.88" style="fill: rgb(16, 76, 53);"/>
  </g>
  <g filter="url(#filter30_d_2071_1091)">
    <rect x="402.952" y="523.653" width="20.1601" height="20.16" rx="2.88" style="fill: rgb(16, 76, 53);"/>
  </g>
  <g filter="url(#filter31_d_2071_1091)">
    <rect x="402.952" y="555.333" width="20.1601" height="20.16" rx="2.88" style="fill: rgb(16, 76, 53);"/>
  </g>
  <path d="M347.038 533.733L344.878 534.98L344.878 532.486L347.038 533.733Z" fill="#0d3d2a"/>
  <path d="M270.64 533.733L268.48 534.98L268.48 532.486L270.64 533.733Z" fill="#0d3d2a"/>
  <path d="M347.038 564.837L344.878 566.084L344.878 563.59L347.038 564.837Z" fill="#0d3d2a"/>
  <path d="M208.796 564.837L206.636 566.084L206.636 563.59L208.796 564.837Z" fill="#0d3d2a"/>
  <defs>
    <filter id="filter0_d_2071_1091" x="339.289" y="35.0908" width="269.281" height="42.4801" filterUnits="userSpaceOnUse" color-interpolation-filters="sRGB">
      <feFlood flood-opacity="0" result="BackgroundImageFix"/>
      <feColorMatrix in="SourceAlpha" type="matrix" values="0 0 0 0 0 0 0 0 0 0 0 0 0 0 0 0 0 0 127 0" result="hardAlpha"/>
      <feOffset dy="4.32001"/>
      <feGaussianBlur stdDeviation="4.32001"/>
      <feComposite in2="hardAlpha" operator="out"/>
      <feColorMatrix type="matrix" values="0 0 0 0 0.062745 0 0 0 0 0.298039 0 0 0 0 0.207843 0 0 0 0.3 0"/>
      <feBlend mode="normal" in2="BackgroundImageFix" result="effect1_dropShadow_2071_1091"/>
      <feBlend mode="normal" in="SourceGraphic" in2="effect1_dropShadow_2071_1091" result="shape"/>
    </filter>
    <filter id="filter1_d_2071_1091" x="339.289" y="100.126" width="60.4802" height="43.2" filterUnits="userSpaceOnUse" color-interpolation-filters="sRGB">
      <feFlood flood-opacity="0" result="BackgroundImageFix"/>
      <feColorMatrix in="SourceAlpha" type="matrix" values="0 0 0 0 0 0 0 0 0 0 0 0 0 0 0 0 0 0 127 0" result="hardAlpha"/>
      <feOffset dy="4.32001"/>
      <feGaussianBlur stdDeviation="4.32001"/>
      <feComposite in2="hardAlpha" operator="out"/>
      <feColorMatrix type="matrix" values="0 0 0 0 0.062745 0 0 0 0 0.298039 0 0 0 0 0.207843 0 0 0 0.5 0"/>
      <feBlend mode="normal" in2="BackgroundImageFix" result="effect1_dropShadow_2071_1091"/>
      <feBlend mode="normal" in="SourceGraphic" in2="effect1_dropShadow_2071_1091" result="shape"/>
    </filter>
    <filter id="filter2_d_2071_1091" x="391.609" y="100.126" width="60.4802" height="43.2" filterUnits="userSpaceOnUse" color-interpolation-filters="sRGB">
      <feFlood flood-opacity="0" result="BackgroundImageFix"/>
      <feColorMatrix in="SourceAlpha" type="matrix" values="0 0 0 0 0 0 0 0 0 0 0 0 0 0 0 0 0 0 127 0" result="hardAlpha"/>
      <feOffset dy="4.32001"/>
      <feGaussianBlur stdDeviation="4.32001"/>
      <feComposite in2="hardAlpha" operator="out"/>
      <feColorMatrix type="matrix" values="0 0 0 0 0.062745 0 0 0 0 0.298039 0 0 0 0 0.207843 0 0 0 0.5 0"/>
      <feBlend mode="normal" in2="BackgroundImageFix" result="effect1_dropShadow_2071_1091"/>
      <feBlend mode="normal" in="SourceGraphic" in2="effect1_dropShadow_2071_1091" result="shape"/>
    </filter>
    <filter id="filter3_d_2071_1091" x="443.937" y="100.126" width="60.4802" height="43.2" filterUnits="userSpaceOnUse" color-interpolation-filters="sRGB">
      <feFlood flood-opacity="0" result="BackgroundImageFix"/>
      <feColorMatrix in="SourceAlpha" type="matrix" values="0 0 0 0 0 0 0 0 0 0 0 0 0 0 0 0 0 0 127 0" result="hardAlpha"/>
      <feOffset dy="4.32001"/>
      <feGaussianBlur stdDeviation="4.32001"/>
      <feComposite in2="hardAlpha" operator="out"/>
      <feColorMatrix type="matrix" values="0 0 0 0 0.062745 0 0 0 0 0.298039 0 0 0 0 0.207843 0 0 0 0.5 0"/>
      <feBlend mode="normal" in2="BackgroundImageFix" result="effect1_dropShadow_2071_1091"/>
      <feBlend mode="normal" in="SourceGraphic" in2="effect1_dropShadow_2071_1091" result="shape"/>
    </filter>
    <filter id="filter4_d_2071_1091" x="496.257" y="100.126" width="60.4802" height="43.2" filterUnits="userSpaceOnUse" color-interpolation-filters="sRGB">
      <feFlood flood-opacity="0" result="BackgroundImageFix"/>
      <feColorMatrix in="SourceAlpha" type="matrix" values="0 0 0 0 0 0 0 0 0 0 0 0 0 0 0 0 0 0 127 0" result="hardAlpha"/>
      <feOffset dy="4.32001"/>
      <feGaussianBlur stdDeviation="4.32001"/>
      <feComposite in2="hardAlpha" operator="out"/>
      <feColorMatrix type="matrix" values="0 0 0 0 0.062745 0 0 0 0 0.298039 0 0 0 0 0.207843 0 0 0 0.5 0"/>
      <feBlend mode="normal" in2="BackgroundImageFix" result="effect1_dropShadow_2071_1091"/>
      <feBlend mode="normal" in="SourceGraphic" in2="effect1_dropShadow_2071_1091" result="shape"/>
    </filter>
    <filter id="filter5_d_2071_1091" x="548.586" y="100.126" width="60.4802" height="43.2" filterUnits="userSpaceOnUse" color-interpolation-filters="sRGB">
      <feFlood flood-opacity="0" result="BackgroundImageFix"/>
      <feColorMatrix in="SourceAlpha" type="matrix" values="0 0 0 0 0 0 0 0 0 0 0 0 0 0 0 0 0 0 127 0" result="hardAlpha"/>
      <feOffset dy="4.32001"/>
      <feGaussianBlur stdDeviation="4.32001"/>
      <feComposite in2="hardAlpha" operator="out"/>
      <feColorMatrix type="matrix" values="0 0 0 0 0.062745 0 0 0 0 0.298039 0 0 0 0 0.207843 0 0 0 0.5 0"/>
      <feBlend mode="normal" in2="BackgroundImageFix" result="effect1_dropShadow_2071_1091"/>
      <feBlend mode="normal" in="SourceGraphic" in2="effect1_dropShadow_2071_1091" result="shape"/>
    </filter>
    <filter id="filter6_d_2071_1091" x="339.289" y="182.531" width="60.4802" height="43.2" filterUnits="userSpaceOnUse" color-interpolation-filters="sRGB">
      <feFlood flood-opacity="0" result="BackgroundImageFix"/>
      <feColorMatrix in="SourceAlpha" type="matrix" values="0 0 0 0 0 0 0 0 0 0 0 0 0 0 0 0 0 0 127 0" result="hardAlpha"/>
      <feOffset dy="4.32001"/>
      <feGaussianBlur stdDeviation="4.32001"/>
      <feComposite in2="hardAlpha" operator="out"/>
      <feColorMatrix type="matrix" values="0 0 0 0 0.062745 0 0 0 0 0.298039 0 0 0 0 0.207843 0 0 0 0.4 0"/>
      <feBlend mode="normal" in2="BackgroundImageFix" result="effect1_dropShadow_2071_1091"/>
      <feBlend mode="normal" in="SourceGraphic" in2="effect1_dropShadow_2071_1091" result="shape"/>
    </filter>
    <filter id="filter7_d_2071_1091" x="339.289" y="244.371" width="60.4802" height="43.2" filterUnits="userSpaceOnUse" color-interpolation-filters="sRGB">
      <feFlood flood-opacity="0" result="BackgroundImageFix"/>
      <feColorMatrix in="SourceAlpha" type="matrix" values="0 0 0 0 0 0 0 0 0 0 0 0 0 0 0 0 0 0 127 0" result="hardAlpha"/>
      <feOffset dy="4.32001"/>
      <feGaussianBlur stdDeviation="4.32001"/>
      <feComposite in2="hardAlpha" operator="out"/>
      <feColorMatrix type="matrix" values="0 0 0 0 0.062745 0 0 0 0 0.298039 0 0 0 0 0.207843 0 0 0 0.4 0"/>
      <feBlend mode="normal" in2="BackgroundImageFix" result="effect1_dropShadow_2071_1091"/>
      <feBlend mode="normal" in="SourceGraphic" in2="effect1_dropShadow_2071_1091" result="shape"/>
    </filter>
    <filter id="filter8_d_2071_1091" x="416.328" y="244.371" width="60.4802" height="43.2" filterUnits="userSpaceOnUse" color-interpolation-filters="sRGB">
      <feFlood flood-opacity="0" result="BackgroundImageFix"/>
      <feColorMatrix in="SourceAlpha" type="matrix" values="0 0 0 0 0 0 0 0 0 0 0 0 0 0 0 0 0 0 127 0" result="hardAlpha"/>
      <feOffset dy="4.32001"/>
      <feGaussianBlur stdDeviation="4.32001"/>
      <feComposite in2="hardAlpha" operator="out"/>
      <feColorMatrix type="matrix" values="0 0 0 0 0.062745 0 0 0 0 0.298039 0 0 0 0 0.207843 0 0 0 0.4 0"/>
      <feBlend mode="normal" in2="BackgroundImageFix" result="effect1_dropShadow_2071_1091"/>
      <feBlend mode="normal" in="SourceGraphic" in2="effect1_dropShadow_2071_1091" result="shape"/>
    </filter>
    <filter id="filter9_d_2071_1091" x="495.765" y="244.371" width="60.4802" height="43.2" filterUnits="userSpaceOnUse" color-interpolation-filters="sRGB">
      <feFlood flood-opacity="0" result="BackgroundImageFix"/>
      <feColorMatrix in="SourceAlpha" type="matrix" values="0 0 0 0 0 0 0 0 0 0 0 0 0 0 0 0 0 0 127 0" result="hardAlpha"/>
      <feOffset dy="4.32001"/>
      <feGaussianBlur stdDeviation="4.32001"/>
      <feComposite in2="hardAlpha" operator="out"/>
      <feColorMatrix type="matrix" values="0 0 0 0 0.062745 0 0 0 0 0.298039 0 0 0 0 0.207843 0 0 0 0.4 0"/>
      <feBlend mode="normal" in2="BackgroundImageFix" result="effect1_dropShadow_2071_1091"/>
      <feBlend mode="normal" in="SourceGraphic" in2="effect1_dropShadow_2071_1091" result="shape"/>
    </filter>
    <filter id="filter10_d_2071_1091" x="548.586" y="182.531" width="60.4802" height="43.2" filterUnits="userSpaceOnUse" color-interpolation-filters="sRGB">
      <feFlood flood-opacity="0" result="BackgroundImageFix"/>
      <feColorMatrix in="SourceAlpha" type="matrix" values="0 0 0 0 0 0 0 0 0 0 0 0 0 0 0 0 0 0 127 0" result="hardAlpha"/>
      <feOffset dy="4.32001"/>
      <feGaussianBlur stdDeviation="4.32001"/>
      <feComposite in2="hardAlpha" operator="out"/>
      <feColorMatrix type="matrix" values="0 0 0 0 0.062745 0 0 0 0 0.298039 0 0 0 0 0.207843 0 0 0 0.4 0"/>
      <feBlend mode="normal" in2="BackgroundImageFix" result="effect1_dropShadow_2071_1091"/>
      <feBlend mode="normal" in="SourceGraphic" in2="effect1_dropShadow_2071_1091" result="shape"/>
    </filter>
    <filter id="filter11_d_2071_1091" x="394.726" y="182.531" width="103.68" height="43.2" filterUnits="userSpaceOnUse" color-interpolation-filters="sRGB">
      <feFlood flood-opacity="0" result="BackgroundImageFix"/>
      <feColorMatrix in="SourceAlpha" type="matrix" values="0 0 0 0 0 0 0 0 0 0 0 0 0 0 0 0 0 0 127 0" result="hardAlpha"/>
      <feOffset dy="4.32001"/>
      <feGaussianBlur stdDeviation="4.32001"/>
      <feComposite in2="hardAlpha" operator="out"/>
      <feColorMatrix type="matrix" values="0 0 0 0 0.062745 0 0 0 0 0.298039 0 0 0 0 0.207843 0 0 0 0.4 0"/>
      <feBlend mode="normal" in2="BackgroundImageFix" result="effect1_dropShadow_2071_1091"/>
      <feBlend mode="normal" in="SourceGraphic" in2="effect1_dropShadow_2071_1091" result="shape"/>
    </filter>
    <filter id="filter12_d_2071_1091" x="27.8683" y="243.792" width="59.9041" height="48.384" filterUnits="userSpaceOnUse" color-interpolation-filters="sRGB">
      <feFlood flood-opacity="0" result="BackgroundImageFix"/>
      <feColorMatrix in="SourceAlpha" type="matrix" values="0 0 0 0 0 0 0 0 0 0 0 0 0 0 0 0 0 0 127 0" result="hardAlpha"/>
      <feOffset dy="3.45601"/>
      <feGaussianBlur stdDeviation="3.45601"/>
      <feComposite in2="hardAlpha" operator="out"/>
      <feColorMatrix type="matrix" values="0 0 0 0 0.062745 0 0 0 0 0.298039 0 0 0 0 0.207843 0 0 0 0.3 0"/>
      <feBlend mode="normal" in2="BackgroundImageFix" result="effect1_dropShadow_2071_1091"/>
      <feBlend mode="normal" in="SourceGraphic" in2="effect1_dropShadow_2071_1091" result="shape"/>
    </filter>
    <filter id="filter13_d_2071_1091" x="92.3761" y="243.792" width="59.9041" height="48.384" filterUnits="userSpaceOnUse" color-interpolation-filters="sRGB">
      <feFlood flood-opacity="0" result="BackgroundImageFix"/>
      <feColorMatrix in="SourceAlpha" type="matrix" values="0 0 0 0 0 0 0 0 0 0 0 0 0 0 0 0 0 0 127 0" result="hardAlpha"/>
      <feOffset dy="3.45601"/>
      <feGaussianBlur stdDeviation="3.45601"/>
      <feComposite in2="hardAlpha" operator="out"/>
      <feColorMatrix type="matrix" values="0 0 0 0 0.062745 0 0 0 0 0.298039 0 0 0 0 0.207843 0 0 0 0.3 0"/>
      <feBlend mode="normal" in2="BackgroundImageFix" result="effect1_dropShadow_2071_1091"/>
      <feBlend mode="normal" in="SourceGraphic" in2="effect1_dropShadow_2071_1091" result="shape"/>
    </filter>
    <filter id="filter14_d_2071_1091" x="144.212" y="243.792" width="59.9041" height="48.384" filterUnits="userSpaceOnUse" color-interpolation-filters="sRGB">
      <feFlood flood-opacity="0" result="BackgroundImageFix"/>
      <feColorMatrix in="SourceAlpha" type="matrix" values="0 0 0 0 0 0 0 0 0 0 0 0 0 0 0 0 0 0 127 0" result="hardAlpha"/>
      <feOffset dy="3.45601"/>
      <feGaussianBlur stdDeviation="3.45601"/>
      <feComposite in2="hardAlpha" operator="out"/>
      <feColorMatrix type="matrix" values="0 0 0 0 0.062745 0 0 0 0 0.298039 0 0 0 0 0.207843 0 0 0 0.3 0"/>
      <feBlend mode="normal" in2="BackgroundImageFix" result="effect1_dropShadow_2071_1091"/>
      <feBlend mode="normal" in="SourceGraphic" in2="effect1_dropShadow_2071_1091" result="shape"/>
    </filter>
    <filter id="filter15_d_2071_1091" x="27.8683" y="301.392" width="59.9041" height="48.384" filterUnits="userSpaceOnUse" color-interpolation-filters="sRGB">
      <feFlood flood-opacity="0" result="BackgroundImageFix"/>
      <feColorMatrix in="SourceAlpha" type="matrix" values="0 0 0 0 0 0 0 0 0 0 0 0 0 0 0 0 0 0 127 0" result="hardAlpha"/>
      <feOffset dy="3.45601"/>
      <feGaussianBlur stdDeviation="3.45601"/>
      <feComposite in2="hardAlpha" operator="out"/>
      <feColorMatrix type="matrix" values="0 0 0 0 0.062745 0 0 0 0 0.298039 0 0 0 0 0.207843 0 0 0 0.3 0"/>
      <feBlend mode="normal" in2="BackgroundImageFix" result="effect1_dropShadow_2071_1091"/>
      <feBlend mode="normal" in="SourceGraphic" in2="effect1_dropShadow_2071_1091" result="shape"/>
    </filter>
    <filter id="filter16_d_2071_1091" x="115.415" y="301.392" width="59.9041" height="48.384" filterUnits="userSpaceOnUse" color-interpolation-filters="sRGB">
      <feFlood flood-opacity="0" result="BackgroundImageFix"/>
      <feColorMatrix in="SourceAlpha" type="matrix" values="0 0 0 0 0 0 0 0 0 0 0 0 0 0 0 0 0 0 127 0" result="hardAlpha"/>
      <feOffset dy="3.45601"/>
      <feGaussianBlur stdDeviation="3.45601"/>
      <feComposite in2="hardAlpha" operator="out"/>
      <feColorMatrix type="matrix" values="0 0 0 0 0.062745 0 0 0 0 0.298039 0 0 0 0 0.207843 0 0 0 0.3 0"/>
      <feBlend mode="normal" in2="BackgroundImageFix" result="effect1_dropShadow_2071_1091"/>
      <feBlend mode="normal" in="SourceGraphic" in2="effect1_dropShadow_2071_1091" result="shape"/>
    </filter>
    <filter id="filter17_d_2071_1091" x="221.954" y="243.792" width="59.9041" height="48.384" filterUnits="userSpaceOnUse" color-interpolation-filters="sRGB">
      <feFlood flood-opacity="0" result="BackgroundImageFix"/>
      <feColorMatrix in="SourceAlpha" type="matrix" values="0 0 0 0 0 0 0 0 0 0 0 0 0 0 0 0 0 0 127 0" result="hardAlpha"/>
      <feOffset dy="3.45601"/>
      <feGaussianBlur stdDeviation="3.45601"/>
      <feComposite in2="hardAlpha" operator="out"/>
      <feColorMatrix type="matrix" values="0 0 0 0 0.062745 0 0 0 0 0.298039 0 0 0 0 0.207843 0 0 0 0.3 0"/>
      <feBlend mode="normal" in2="BackgroundImageFix" result="effect1_dropShadow_2071_1091"/>
      <feBlend mode="normal" in="SourceGraphic" in2="effect1_dropShadow_2071_1091" result="shape"/>
    </filter>
    <filter id="filter18_d_2071_1091" x="221.954" y="301.392" width="59.9041" height="48.384" filterUnits="userSpaceOnUse" color-interpolation-filters="sRGB">
      <feFlood flood-opacity="0" result="BackgroundImageFix"/>
      <feColorMatrix in="SourceAlpha" type="matrix" values="0 0 0 0 0 0 0 0 0 0 0 0 0 0 0 0 0 0 127 0" result="hardAlpha"/>
      <feOffset dy="3.45601"/>
      <feGaussianBlur stdDeviation="3.45601"/>
      <feComposite in2="hardAlpha" operator="out"/>
      <feColorMatrix type="matrix" values="0 0 0 0 0.062745 0 0 0 0 0.298039 0 0 0 0 0.207843 0 0 0 0.3 0"/>
      <feBlend mode="normal" in2="BackgroundImageFix" result="effect1_dropShadow_2071_1091"/>
      <feBlend mode="normal" in="SourceGraphic" in2="effect1_dropShadow_2071_1091" result="shape"/>
    </filter>
    <filter id="filter19_d_2071_1091" x="117.993" y="170.64" width="59.9041" height="48.384" filterUnits="userSpaceOnUse" color-interpolation-filters="sRGB">
      <feFlood flood-opacity="0" result="BackgroundImageFix"/>
      <feColorMatrix in="SourceAlpha" type="matrix" values="0 0 0 0 0 0 0 0 0 0 0 0 0 0 0 0 0 0 127 0" result="hardAlpha"/>
      <feOffset dy="3.45601"/>
      <feGaussianBlur stdDeviation="3.45601"/>
      <feComposite in2="hardAlpha" operator="out"/>
      <feColorMatrix type="matrix" values="0 0 0 0 0.062745 0 0 0 0 0.298039 0 0 0 0 0.207843 0 0 0 0.3 0"/>
      <feBlend mode="normal" in2="BackgroundImageFix" result="effect1_dropShadow_2071_1091"/>
      <feBlend mode="normal" in="SourceGraphic" in2="effect1_dropShadow_2071_1091" result="shape"/>
    </filter>
    <filter id="filter20_d_2071_1091" x="163.172" y="468.629" width="92.6287" height="62.776" filterUnits="userSpaceOnUse" color-interpolation-filters="sRGB">
      <feFlood flood-opacity="0" result="BackgroundImageFix"/>
      <feColorMatrix in="SourceAlpha" type="matrix" values="0 0 0 0 0 0 0 0 0 0 0 0 0 0 0 0 0 0 127 0" result="hardAlpha"/>
      <feOffset dy="4.32001"/>
      <feGaussianBlur stdDeviation="4.32001"/>
      <feComposite in2="hardAlpha" operator="out"/>
      <feColorMatrix type="matrix" values="0 0 0 0 0.062745 0 0 0 0 0.298039 0 0 0 0 0.207843 0 0 0 0.3 0"/>
      <feBlend mode="normal" in2="BackgroundImageFix" result="effect1_dropShadow_2071_1091"/>
      <feBlend mode="normal" in="SourceGraphic" in2="effect1_dropShadow_2071_1091" result="shape"/>
    </filter>
    <filter id="filter21_d_2071_1091" x="212.547" y="502.053" width="37.4402" height="37.44" filterUnits="userSpaceOnUse" color-interpolation-filters="sRGB">
      <feFlood flood-opacity="0" result="BackgroundImageFix"/>
      <feColorMatrix in="SourceAlpha" type="matrix" values="0 0 0 0 0 0 0 0 0 0 0 0 0 0 0 0 0 0 127 0" result="hardAlpha"/>
      <feOffset dy="4.32001"/>
      <feGaussianBlur stdDeviation="4.32001"/>
      <feComposite in2="hardAlpha" operator="out"/>
      <feColorMatrix type="matrix" values="0 0 0 0 0.062745 0 0 0 0 0.298039 0 0 0 0 0.207843 0 0 0 0.5 0"/>
      <feBlend mode="normal" in2="BackgroundImageFix" result="effect1_dropShadow_2071_1091"/>
      <feBlend mode="normal" in="SourceGraphic" in2="effect1_dropShadow_2071_1091" result="shape"/>
    </filter>
    <filter id="filter22_d_2071_1091" x="169.914" y="502.053" width="37.4402" height="37.44" filterUnits="userSpaceOnUse" color-interpolation-filters="sRGB">
      <feFlood flood-opacity="0" result="BackgroundImageFix"/>
      <feColorMatrix in="SourceAlpha" type="matrix" values="0 0 0 0 0 0 0 0 0 0 0 0 0 0 0 0 0 0 127 0" result="hardAlpha"/>
      <feOffset dy="4.32001"/>
      <feGaussianBlur stdDeviation="4.32001"/>
      <feComposite in2="hardAlpha" operator="out"/>
      <feColorMatrix type="matrix" values="0 0 0 0 0.062745 0 0 0 0 0.298039 0 0 0 0 0.207843 0 0 0 0.5 0"/>
      <feBlend mode="normal" in2="BackgroundImageFix" result="effect1_dropShadow_2071_1091"/>
      <feBlend mode="normal" in="SourceGraphic" in2="effect1_dropShadow_2071_1091" result="shape"/>
    </filter>
    <filter id="filter23_d_2071_1091" x="64.9528" y="420.053" width="57.6003" height="37.44" filterUnits="userSpaceOnUse" color-interpolation-filters="sRGB">
      <feFlood flood-opacity="0" result="BackgroundImageFix"/>
      <feColorMatrix in="SourceAlpha" type="matrix" values="0 0 0 0 0 0 0 0 0 0 0 0 0 0 0 0 0 0 127 0" result="hardAlpha"/>
      <feOffset dy="4.32001"/>
      <feGaussianBlur stdDeviation="4.32001"/>
      <feComposite in2="hardAlpha" operator="out"/>
      <feColorMatrix type="matrix" values="0 0 0 0 0.062745 0 0 0 0 0.298039 0 0 0 0 0.207843 0 0 0 0.3 0"/>
      <feBlend mode="normal" in2="BackgroundImageFix" result="effect1_dropShadow_2071_1091"/>
      <feBlend mode="normal" in="SourceGraphic" in2="effect1_dropShadow_2071_1091" result="shape"/>
    </filter>
    <filter id="filter24_d_2071_1091" x="254.875" y="420.053" width="57.6003" height="37.44" filterUnits="userSpaceOnUse" color-interpolation-filters="sRGB">
      <feFlood flood-opacity="0" result="BackgroundImageFix"/>
      <feColorMatrix in="SourceAlpha" type="matrix" values="0 0 0 0 0 0 0 0 0 0 0 0 0 0 0 0 0 0 127 0" result="hardAlpha"/>
      <feOffset dy="4.32001"/>
      <feGaussianBlur stdDeviation="4.32001"/>
      <feComposite in2="hardAlpha" operator="out"/>
      <feColorMatrix type="matrix" values="0 0 0 0 0.062745 0 0 0 0 0.298039 0 0 0 0 0.207843 0 0 0 0.3 0"/>
      <feBlend mode="normal" in2="BackgroundImageFix" result="effect1_dropShadow_2071_1091"/>
      <feBlend mode="normal" in="SourceGraphic" in2="effect1_dropShadow_2071_1091" result="shape"/>
    </filter>
    <filter id="filter25_d_2071_1091" x="273.515" y="519.333" width="57.6003" height="37.44" filterUnits="userSpaceOnUse" color-interpolation-filters="sRGB">
      <feFlood flood-opacity="0" result="BackgroundImageFix"/>
      <feColorMatrix in="SourceAlpha" type="matrix" values="0 0 0 0 0 0 0 0 0 0 0 0 0 0 0 0 0 0 127 0" result="hardAlpha"/>
      <feOffset dy="4.32001"/>
      <feGaussianBlur stdDeviation="4.32001"/>
      <feComposite in2="hardAlpha" operator="out"/>
      <feColorMatrix type="matrix" values="0 0 0 0 0.062745 0 0 0 0 0.298039 0 0 0 0 0.207843 0 0 0 0.3 0"/>
      <feBlend mode="normal" in2="BackgroundImageFix" result="effect1_dropShadow_2071_1091"/>
      <feBlend mode="normal" in="SourceGraphic" in2="effect1_dropShadow_2071_1091" result="shape"/>
    </filter>
    <filter id="filter26_d_2071_1091" x="211.679" y="551.013" width="57.6003" height="37.44" filterUnits="userSpaceOnUse" color-interpolation-filters="sRGB">
      <feFlood flood-opacity="0" result="BackgroundImageFix"/>
      <feColorMatrix in="SourceAlpha" type="matrix" values="0 0 0 0 0 0 0 0 0 0 0 0 0 0 0 0 0 0 127 0" result="hardAlpha"/>
      <feOffset dy="4.32001"/>
      <feGaussianBlur stdDeviation="4.32001"/>
      <feComposite in2="hardAlpha" operator="out"/>
      <feColorMatrix type="matrix" values="0 0 0 0 0.062745 0 0 0 0 0.298039 0 0 0 0 0.207843 0 0 0 0.3 0"/>
      <feBlend mode="normal" in2="BackgroundImageFix" result="effect1_dropShadow_2071_1091"/>
      <feBlend mode="normal" in="SourceGraphic" in2="effect1_dropShadow_2071_1091" result="shape"/>
    </filter>
    <filter id="filter27_d_2071_1091" x="309.601" y="420.053" width="57.6003" height="37.44" filterUnits="userSpaceOnUse" color-interpolation-filters="sRGB">
      <feFlood flood-opacity="0" result="BackgroundImageFix"/>
      <feColorMatrix in="SourceAlpha" type="matrix" values="0 0 0 0 0 0 0 0 0 0 0 0 0 0 0 0 0 0 127 0" result="hardAlpha"/>
      <feOffset dy="4.32001"/>
      <feGaussianBlur stdDeviation="4.32001"/>
      <feComposite in2="hardAlpha" operator="out"/>
      <feColorMatrix type="matrix" values="0 0 0 0 0.062745 0 0 0 0 0.298039 0 0 0 0 0.207843 0 0 0 0.3 0"/>
      <feBlend mode="normal" in2="BackgroundImageFix" result="effect1_dropShadow_2071_1091"/>
      <feBlend mode="normal" in="SourceGraphic" in2="effect1_dropShadow_2071_1091" result="shape"/>
    </filter>
    <filter id="filter28_d_2071_1091" x="36.1559" y="420.053" width="37.4402" height="37.44" filterUnits="userSpaceOnUse" color-interpolation-filters="sRGB">
      <feFlood flood-opacity="0" result="BackgroundImageFix"/>
      <feColorMatrix in="SourceAlpha" type="matrix" values="0 0 0 0 0 0 0 0 0 0 0 0 0 0 0 0 0 0 127 0" result="hardAlpha"/>
      <feOffset dy="4.32001"/>
      <feGaussianBlur stdDeviation="4.32001"/>
      <feComposite in2="hardAlpha" operator="out"/>
      <feColorMatrix type="matrix" values="0 0 0 0 0.062745 0 0 0 0 0.298039 0 0 0 0 0.207843 0 0 0 0.5 0"/>
      <feBlend mode="normal" in2="BackgroundImageFix" result="effect1_dropShadow_2071_1091"/>
      <feBlend mode="normal" in="SourceGraphic" in2="effect1_dropShadow_2071_1091" result="shape"/>
    </filter>
    <filter id="filter29_d_2071_1091" x="394.312" y="420.053" width="37.4402" height="37.44" filterUnits="userSpaceOnUse" color-interpolation-filters="sRGB">
      <feFlood flood-opacity="0" result="BackgroundImageFix"/>
      <feColorMatrix in="SourceAlpha" type="matrix" values="0 0 0 0 0 0 0 0 0 0 0 0 0 0 0 0 0 0 127 0" result="hardAlpha"/>
      <feOffset dy="4.32001"/>
      <feGaussianBlur stdDeviation="4.32001"/>
      <feComposite in2="hardAlpha" operator="out"/>
      <feColorMatrix type="matrix" values="0 0 0 0 0.062745 0 0 0 0 0.298039 0 0 0 0 0.207843 0 0 0 0.5 0"/>
      <feBlend mode="normal" in2="BackgroundImageFix" result="effect1_dropShadow_2071_1091"/>
      <feBlend mode="normal" in="SourceGraphic" in2="effect1_dropShadow_2071_1091" result="shape"/>
    </filter>
    <filter id="filter30_d_2071_1091" x="394.312" y="519.333" width="37.4402" height="37.44" filterUnits="userSpaceOnUse" color-interpolation-filters="sRGB">
      <feFlood flood-opacity="0" result="BackgroundImageFix"/>
      <feColorMatrix in="SourceAlpha" type="matrix" values="0 0 0 0 0 0 0 0 0 0 0 0 0 0 0 0 0 0 127 0" result="hardAlpha"/>
      <feOffset dy="4.32001"/>
      <feGaussianBlur stdDeviation="4.32001"/>
      <feComposite in2="hardAlpha" operator="out"/>
      <feColorMatrix type="matrix" values="0 0 0 0 0.062745 0 0 0 0 0.298039 0 0 0 0 0.207843 0 0 0 0.5 0"/>
      <feBlend mode="normal" in2="BackgroundImageFix" result="effect1_dropShadow_2071_1091"/>
      <feBlend mode="normal" in="SourceGraphic" in2="effect1_dropShadow_2071_1091" result="shape"/>
    </filter>
    <filter id="filter31_d_2071_1091" x="394.312" y="551.013" width="37.4402" height="37.44" filterUnits="userSpaceOnUse" color-interpolation-filters="sRGB">
      <feFlood flood-opacity="0" result="BackgroundImageFix"/>
      <feColorMatrix in="SourceAlpha" type="matrix" values="0 0 0 0 0 0 0 0 0 0 0 0 0 0 0 0 0 0 127 0" result="hardAlpha"/>
      <feOffset dy="4.32001"/>
      <feGaussianBlur stdDeviation="4.32001"/>
      <feComposite in2="hardAlpha" operator="out"/>
      <feColorMatrix type="matrix" values="0 0 0 0 0.062745 0 0 0 0 0.298039 0 0 0 0 0.207843 0 0 0 0.5 0"/>
      <feBlend mode="normal" in2="BackgroundImageFix" result="effect1_dropShadow_2071_1091"/>
      <feBlend mode="normal" in="SourceGraphic" in2="effect1_dropShadow_2071_1091" result="shape"/>
    </filter>
    <linearGradient id="paint0_linear_2071_1091" x1="347.929" y1="199.811" x2="391.129" y2="199.811" gradientUnits="userSpaceOnUse">
      <stop stop-color="#104C35"/>
      <stop offset="1" stop-color="#0d3d2a"/>
    </linearGradient>
    <linearGradient id="paint1_linear_2071_1091" x1="347.929" y1="261.651" x2="391.129" y2="261.651" gradientUnits="userSpaceOnUse">
      <stop stop-color="#104C35"/>
      <stop offset="1" stop-color="#0d3d2a"/>
    </linearGradient>
    <linearGradient id="paint2_linear_2071_1091" x1="424.968" y1="261.651" x2="468.168" y2="261.651" gradientUnits="userSpaceOnUse">
      <stop stop-color="#104C35"/>
      <stop offset="1" stop-color="#0d3d2a"/>
    </linearGradient>
    <linearGradient id="paint3_linear_2071_1091" x1="504.405" y1="261.651" x2="547.605" y2="261.651" gradientUnits="userSpaceOnUse">
      <stop stop-color="#104C35"/>
      <stop offset="1" stop-color="#0d3d2a"/>
    </linearGradient>
    <linearGradient id="paint4_linear_2071_1091" x1="557.226" y1="199.811" x2="600.426" y2="199.811" gradientUnits="userSpaceOnUse">
      <stop stop-color="#104C35"/>
      <stop offset="1" stop-color="#0d3d2a"/>
    </linearGradient>
    <linearGradient id="paint5_linear_2071_1091" x1="403.366" y1="199.811" x2="489.767" y2="199.811" gradientUnits="userSpaceOnUse">
      <stop stop-color="#104C35"/>
      <stop offset="1" stop-color="#0d3d2a"/>
    </linearGradient>
    <linearGradient id="paint7_linear_2071_1091" x1="34.7803" y1="264.528" x2="80.8604" y2="264.528" gradientUnits="userSpaceOnUse">
      <stop stop-color="#104C35"/>
      <stop offset="1" stop-color="#0d3d2a"/>
    </linearGradient>
    <linearGradient id="paint8_linear_2071_1091" x1="99.2881" y1="264.528" x2="145.368" y2="264.528" gradientUnits="userSpaceOnUse">
      <stop stop-color="#104C35"/>
      <stop offset="1" stop-color="#0d3d2a"/>
    </linearGradient>
    <linearGradient id="paint9_linear_2071_1091" x1="151.124" y1="264.528" x2="197.204" y2="264.528" gradientUnits="userSpaceOnUse">
      <stop stop-color="#104C35"/>
      <stop offset="1" stop-color="#0d3d2a"/>
    </linearGradient>
    <linearGradient id="paint10_linear_2071_1091" x1="34.7803" y1="322.128" x2="80.8604" y2="322.128" gradientUnits="userSpaceOnUse">
      <stop stop-color="#104C35"/>
      <stop offset="1" stop-color="#0d3d2a"/>
    </linearGradient>
    <linearGradient id="paint11_linear_2071_1091" x1="122.327" y1="322.128" x2="168.407" y2="322.128" gradientUnits="userSpaceOnUse">
      <stop stop-color="#104C35"/>
      <stop offset="1" stop-color="#0d3d2a"/>
    </linearGradient>
    <linearGradient id="paint13_linear_2071_1091" x1="171.812" y1="495.697" x2="247.16" y2="495.697" gradientUnits="userSpaceOnUse">
      <stop stop-color="#104C35"/>
      <stop offset="1" stop-color="#0d3d2a"/>
    </linearGradient>
  </defs>
</svg>